# xmcd
#
# Track frame offsets:
#	150
#	14242
#	26617
#	38437
#	50650
#	63045
#	76590
#	90352
#	107072
#	121567
#	134530
#	147672
#	160587
#	174935
#	189387
#
# Disc length: 2675 seconds
#
# Revision: 1
# Processed by: cddbd v1.5.1PL0 Copyright (c) Steve Scherf et al.
# Submitted via: CDex 1.50Beta5
#
DISCID=b40a710f
DTITLE=浅田美代子 - 浅田美代子 ベスト・コレクション
DYEAR=1986
DGENRE=Pop
TTITLE0=赤い風船
TTITLE1=ひとりっ子甘えっ子
TTITLE2=わたしの宵待草
TTITLE3=恋は真珠いろ
TTITLE4=しあわせの一番星
TTITLE5=虹の架け橋
TTITLE6=じゃあまたね
TTITLE7=想い出のカフェテラス
TTITLE8=少女恋唄
TTITLE9=この胸にこの髪に
TTITLE10=恋のシンデレラ
TTITLE11=足ながおじさん
TTITLE12=恋のまえぶれ
TTITLE13=ひとりぼっちの誕生日
TTITLE14=北風の日曜日
EXTD=
EXTT0=
EXTT1=
EXTT2=
EXTT3=
EXTT4=
EXTT5=
EXTT6=
EXTT7=
EXTT8=
EXTT9=
EXTT10=
EXTT11=
EXTT12=
EXTT13=
EXTT14=
PLAYORDER=
